<svg width="20" height="20" viewBox="0 0 20 20" fill="none" xmlns="http://www.w3.org/2000/svg">
<path d="M17.3504 1.25H2.74531C1.94727 1.25 1.25 1.82422 1.25 2.61289V17.2504C1.25 18.0434 1.94727 18.75 2.74531 18.75H17.3461C18.1484 18.75 18.75 18.0387 18.75 17.2504V2.61289C18.7547 1.82422 18.1484 1.25 17.3504 1.25ZM6.67461 15.8371H4.16758V8.04219H6.67461V15.8371ZM5.50781 6.85703H5.48984C4.6875 6.85703 4.16797 6.25977 4.16797 5.51211C4.16797 4.75078 4.70117 4.16758 5.52149 4.16758C6.3418 4.16758 6.84375 4.74648 6.86172 5.51211C6.86133 6.25977 6.3418 6.85703 5.50781 6.85703ZM15.8371 15.8371H13.3301V11.575C13.3301 10.5539 12.9652 9.85625 12.0582 9.85625C11.3652 9.85625 10.9551 10.325 10.7727 10.7816C10.7043 10.9457 10.6859 11.1691 10.6859 11.3973V15.8371H8.17891V8.04219H10.6859V9.12695C11.0508 8.60742 11.6207 7.85977 12.9469 7.85977C14.5926 7.85977 15.8375 8.94453 15.8375 11.2832L15.8371 15.8371Z" fill="#0077B5"/>
</svg>
