<svg width="20" height="20" viewBox="0 0 20 20" fill="none" xmlns="http://www.w3.org/2000/svg">
<path d="M19.375 4.27734C18.6717 4.58295 17.9275 4.78429 17.166 4.875C17.9663 4.4064 18.5681 3.66194 18.8586 2.78125C18.102 3.22367 17.2756 3.53409 16.4148 3.69922C16.0524 3.31935 15.6165 3.01715 15.1336 2.81099C14.6507 2.60484 14.1309 2.49903 13.6059 2.5C11.4801 2.5 9.75977 4.19531 9.75977 6.28515C9.75826 6.57584 9.79157 6.86567 9.85898 7.14844C8.33464 7.07698 6.842 6.68812 5.47656 6.00674C4.11111 5.32536 2.90292 4.36647 1.9293 3.19141C1.58772 3.76723 1.40708 4.42423 1.40625 5.09375C1.40625 6.40625 2.09102 7.56641 3.125 8.24609C2.51239 8.23155 1.91234 8.06941 1.37578 7.77344V7.82031C1.37578 9.65625 2.70391 11.1836 4.46172 11.5312C4.13117 11.6194 3.79053 11.664 3.44844 11.6641C3.20569 11.6645 2.9635 11.6409 2.72539 11.5937C3.21406 13.0977 4.63633 14.1914 6.32109 14.2227C4.9521 15.2777 3.27134 15.8479 1.54297 15.8437C1.23618 15.8433 0.929674 15.825 0.625 15.7891C2.38327 16.9118 4.42713 17.5057 6.51328 17.5C13.5977 17.5 17.468 11.7305 17.468 6.72656C17.468 6.5625 17.4637 6.39844 17.4559 6.23828C18.2071 5.70393 18.857 5.03989 19.375 4.27734Z" fill="#1D9BF0"/>
</svg>
